<svg width="18" height="18" viewBox="0 0 18 18" fill="none" xmlns="http://www.w3.org/2000/svg">
<path d="M11.8332 13.7221C12.3342 13.7221 12.8146 13.5231 13.1689 13.1689C13.5231 12.8146 13.7221 12.3342 13.7221 11.8332C13.7221 11.3323 13.5231 10.8518 13.1689 10.4976C12.8146 10.1433 12.3342 9.94434 11.8332 9.94434C11.3323 9.94434 10.8518 10.1433 10.4976 10.4976C10.1433 10.8518 9.94434 11.3323 9.94434 11.8332C9.94434 12.3342 10.1433 12.8146 10.4976 13.1689C10.8518 13.5231 11.3323 13.7221 11.8332 13.7221Z" fill="#BDBDBD"/>
<path fill-rule="evenodd" clip-rule="evenodd" d="M3.33333 0.5C2.58189 0.5 1.86122 0.798511 1.32986 1.32986C0.798511 1.86122 0.5 2.58189 0.5 3.33333V14.6667C0.5 15.4181 0.798511 16.1388 1.32986 16.6701C1.86122 17.2015 2.58189 17.5 3.33333 17.5H14.6667C15.4181 17.5 16.1388 17.2015 16.6701 16.6701C17.2015 16.1388 17.5 15.4181 17.5 14.6667V3.33333C17.5 2.58189 17.2015 1.86122 16.6701 1.32986C16.1388 0.798511 15.4181 0.5 14.6667 0.5H3.33333ZM2.38889 14.6667V4.27778H15.6111V14.6667C15.6111 14.9171 15.5116 15.1574 15.3345 15.3345C15.1574 15.5116 14.9171 15.6111 14.6667 15.6111H3.33333C3.08285 15.6111 2.84263 15.5116 2.66551 15.3345C2.48839 15.1574 2.38889 14.9171 2.38889 14.6667Z" fill="#BDBDBD"/>
</svg>
